<svg width="36" height="36" viewBox="0 0 36 36" fill="none" xmlns="http://www.w3.org/2000/svg">
<rect width="36" height="36" rx="18" fill="#FF9500"/>
<rect width="36" height="36" rx="18" fill="url(#paint0_linear_3386_26214)" fill-opacity="0.25"/>
<g filter="url(#filter0_d_3386_26214)">
<path d="M19.0008 21.13L20.0008 12.19C20.2008 9.27 15.8008 9.27 16.0008 12.19L17.0008 21.13C17.1208 22.29 18.8808 22.3 19.0008 21.13ZM18.0008 24C17.4508 24 17.0008 24.45 17.0008 25C17.0008 25.55 17.4508 26 18.0008 26C18.5508 26 19.0008 25.55 19.0008 25C19.0008 24.45 18.5508 24 18.0008 24Z" fill="url(#paint1_linear_3386_26214)" shape-rendering="crispEdges"/>
</g>
<defs>
<filter id="filter0_d_3386_26214" x="13.9941" y="10" width="8.01367" height="20" filterUnits="userSpaceOnUse" color-interpolation-filters="sRGB">
<feFlood flood-opacity="0" result="BackgroundImageFix"/>
<feColorMatrix in="SourceAlpha" type="matrix" values="0 0 0 0 0 0 0 0 0 0 0 0 0 0 0 0 0 0 127 0" result="hardAlpha"/>
<feOffset dy="2"/>
<feGaussianBlur stdDeviation="1"/>
<feComposite in2="hardAlpha" operator="out"/>
<feColorMatrix type="matrix" values="0 0 0 0 1 0 0 0 0 0.658824 0 0 0 0 0 0 0 0 0.5 0"/>
<feBlend mode="multiply" in2="BackgroundImageFix" result="effect1_dropShadow_3386_26214"/>
<feBlend mode="normal" in="SourceGraphic" in2="effect1_dropShadow_3386_26214" result="shape"/>
</filter>
<linearGradient id="paint0_linear_3386_26214" x1="18" y1="0" x2="18" y2="36" gradientUnits="userSpaceOnUse">
<stop stop-color="white"/>
<stop offset="1" stop-color="white" stop-opacity="0"/>
</linearGradient>
<linearGradient id="paint1_linear_3386_26214" x1="18.0005" y1="10" x2="18.0007" y2="26" gradientUnits="userSpaceOnUse">
<stop stop-color="white"/>
<stop offset="1" stop-color="white" stop-opacity="0.8"/>
</linearGradient>
</defs>
</svg>
