<svg width="24" height="24" viewBox="0 0 24 24" fill="none" xmlns="http://www.w3.org/2000/svg">
<path fill-rule="evenodd" clip-rule="evenodd" d="M12.7073 12.0002L16.8532 7.85425C17.0492 7.65825 17.0492 7.34225 16.8532 7.14625C16.6582 6.95125 16.3422 6.95125 16.1462 7.14625L12.0002 11.2933L7.85325 7.14625C7.65825 6.95125 7.34225 6.95125 7.14625 7.14625C6.95125 7.34225 6.95125 7.65825 7.14625 7.85425L11.2933 12.0002L7.14625 16.1462C6.95125 16.3422 6.95125 16.6582 7.14625 16.8542C7.24425 16.9513 7.37225 17.0002 7.50025 17.0002C7.62825 17.0002 7.75625 16.9513 7.85325 16.8542L12.0002 12.7073L16.1462 16.8542C16.2442 16.9513 16.3722 17.0002 16.5002 17.0002C16.6283 17.0002 16.7562 16.9513 16.8532 16.8542C17.0492 16.6582 17.0492 16.3422 16.8532 16.1462L12.7073 12.0002Z" fill="#2C2F32" fill-opacity="0.8"/>
</svg>
