<svg width="24" height="24" viewBox="0 0 24 24" fill="none" xmlns="http://www.w3.org/2000/svg">
<path d="M14.012 5.78978C13.822 5.59992 13.572 5.5 13.302 5.5C13.242 5.5 13.172 5.5 13.112 5.51998C12.782 5.57994 12.512 5.79977 12.382 6.10953L10.992 9.33705C10.862 9.63682 10.592 9.85665 10.272 9.92659L8.30195 10.3163C7.94195 10.3862 7.65195 10.656 7.54195 11.0058C7.43195 11.3555 7.53195 11.7452 7.79195 12.005L9.54195 13.7537L5.65195 17.6407C5.45195 17.8405 5.45195 18.1503 5.65195 18.3501C5.75195 18.45 5.88195 18.5 6.00195 18.5C6.12195 18.5 6.26195 18.45 6.35195 18.3501L10.242 14.4631L11.992 16.2118C12.182 16.4016 12.442 16.5015 12.702 16.5015C12.802 16.5015 12.892 16.4915 12.992 16.4616C13.342 16.3517 13.612 16.0619 13.682 15.7022L14.072 13.7337C14.132 13.4139 14.352 13.1441 14.662 13.0142L17.892 11.6253C18.192 11.4954 18.422 11.2256 18.482 10.8958C18.542 10.5661 18.442 10.2364 18.212 9.99654L14.012 5.78978ZM14.272 12.0749C13.662 12.3347 13.232 12.8743 13.102 13.5238L12.712 15.4923L8.50195 11.2955L10.472 10.9058C11.122 10.7759 11.662 10.3363 11.922 9.73674L13.312 6.50922L17.512 10.706L14.272 12.0749Z" fill="#2C2F32" fill-opacity="0.8"/>
</svg>
