<svg width="11" height="12" viewBox="0 0 11 12" fill="none" xmlns="http://www.w3.org/2000/svg">
<path fill-rule="evenodd" clip-rule="evenodd" d="M5 9.50006C5 9.7762 5.22386 10.0001 5.5 10.0001C5.77614 10.0001 6 9.7762 6 9.50006L6 3.70737L8.14575 5.85393C8.34175 6.04893 8.65775 6.04893 8.85375 5.85393C9.04875 5.65793 9.04875 5.34193 8.85375 5.14593L5.85375 2.14593C5.75575 2.04893 5.62775 1.99993 5.49975 1.99993C5.37175 1.99993 5.24375 2.04893 5.14575 2.14593L2.14575 5.14593C1.95075 5.34193 1.95075 5.65793 2.14575 5.85393C2.34175 6.04893 2.65775 6.04893 2.85375 5.85393L5 3.70687L5 9.50006Z" fill="#FF9F0A"/>
</svg>
