<svg width="24" height="24" viewBox="0 0 24 24" fill="none" xmlns="http://www.w3.org/2000/svg">
<path fill-rule="evenodd" clip-rule="evenodd" d="M13 4H11C10.7239 4 10.5 4.22386 10.5 4.5C10.5 4.77614 10.7239 5 11 5H13C13.2761 5 13.5 4.77614 13.5 4.5C13.5 4.22386 13.2761 4 13 4ZM6.5 6H5.5C5.22386 6 5 6.22386 5 6.5C5 6.77614 5.22386 7 5.5 7H6.57143L7.36732 18.1425C7.44208 19.1891 8.31296 20 9.36224 20H14.6378C15.687 20 16.5579 19.1891 16.6327 18.1425L17.4286 7H18.5C18.7761 7 19 6.77614 19 6.5C19 6.22386 18.7761 6 18.5 6H17.5H16.4975H7.50255H6.5ZM16.426 7H7.57398L8.36478 18.0712C8.40216 18.5946 8.8376 19 9.36224 19H14.6378C15.1624 19 15.5978 18.5946 15.6352 18.0712L16.426 7Z" fill="#F7F8F8"/>
</svg>
