<svg width="11" height="12" viewBox="0 0 11 12" fill="none" xmlns="http://www.w3.org/2000/svg">
<path fill-rule="evenodd" clip-rule="evenodd" d="M5 9.50012C5 9.77626 5.22386 10.0001 5.5 10.0001C5.77614 10.0001 6 9.77626 6 9.50012L6 3.70743L8.14575 5.85399C8.34175 6.04899 8.65775 6.04899 8.85375 5.85399C9.04875 5.65799 9.04875 5.34199 8.85375 5.14599L5.85375 2.14599C5.75575 2.04899 5.62775 1.99999 5.49975 1.99999C5.37175 1.99999 5.24375 2.04899 5.14575 2.14599L2.14575 5.14599C1.95075 5.34199 1.95075 5.65799 2.14575 5.85399C2.34175 6.04899 2.65775 6.04899 2.85375 5.85399L5 3.70693L5 9.50012Z" fill="#FF9500"/>
</svg>
