<svg width="11" height="12" viewBox="0 0 11 12" fill="none" xmlns="http://www.w3.org/2000/svg">
<path fill-rule="evenodd" clip-rule="evenodd" d="M6 2.49988C6 2.22374 5.77614 1.99988 5.5 1.99988C5.22386 1.99988 5 2.22374 5 2.49988V8.29257L2.85425 6.14601C2.65825 5.95101 2.34225 5.95101 2.14625 6.14601C1.95125 6.34201 1.95125 6.65801 2.14625 6.85401L5.14625 9.85401C5.24425 9.95101 5.37225 10 5.50025 10C5.62825 10 5.75625 9.95101 5.85425 9.85401L8.85425 6.85401C9.04925 6.65801 9.04925 6.34201 8.85425 6.14601C8.65825 5.95101 8.34225 5.95101 8.14625 6.14601L6 8.29307V2.49988Z" fill="#34C759"/>
</svg>
