<svg width="16" height="16" viewBox="0 0 16 16" fill="none" xmlns="http://www.w3.org/2000/svg">
<path fill-rule="evenodd" clip-rule="evenodd" d="M2.5 13C2.22386 13 2 13.2239 2 13.5C2 13.7761 2.22386 14 2.5 14H14.5C14.7761 14 15 13.7761 15 13.5C15 13.2239 14.7761 13 14.5 13H2.5Z" fill="white"/>
<path fill-rule="evenodd" clip-rule="evenodd" d="M12.65 6.64597C12.85 6.44619 13.1602 6.44619 13.3602 6.64597H13.3502C13.5502 6.84575 13.5502 7.15536 13.3502 7.35514L8.85019 11.8501C8.81019 11.9001 8.75003 11.93 8.69004 11.96C8.63004 11.99 8.56009 12 8.50009 12C8.44009 12 8.37015 11.99 8.31015 11.96C8.27015 11.94 8.21677 11.9034 8.15 11.8501L3.65 7.35514C3.45 7.15536 3.45 6.84575 3.65 6.64597C3.85 6.44619 4.1602 6.44619 4.3602 6.64597L8.00009 10.2819L8 2.49945C8 2.21976 8.22 2 8.5 2C8.78 2 9 2.21976 9 2.49945L9.00009 10.2919L12.65 6.64597Z" fill="white"/>
</svg>
