<svg width="16" height="16" viewBox="0 0 16 16" fill="none" xmlns="http://www.w3.org/2000/svg">
<path d="M9.50101 14H6.50101C6.22101 14 6.00101 14.22 6.00101 14.5C6.00101 14.78 6.22101 15 6.50101 15H9.50101C9.78101 15 10.001 14.78 10.001 14.5C10.001 14.22 9.78101 14 9.50101 14ZM8.00101 1C7.61101 1 7.21101 1.05 6.81101 1.14C5.02101 1.55 3.59101 2.97 3.15101 4.76C2.71101 6.54 3.24101 8.35 4.55101 9.6C5.02101 10.05 5.23101 10.68 5.31101 11.14L5.44101 11.8C5.58101 12.5 6.20101 13.01 6.91101 13.01H9.09101C9.81101 13.01 10.421 12.5 10.561 11.8L10.701 11.08C10.781 10.66 10.981 10.06 11.451 9.62C12.451 8.67 13.001 7.39 13.001 6.02C13.001 3.24 10.761 1 8.00101 1ZM10.761 8.88C10.201 9.41 9.87101 10.13 9.72101 10.88L9.58101 11.6C9.53101 11.83 9.33101 12 9.09101 12H6.91101C6.67101 12 6.47101 11.83 6.42101 11.6L6.29101 10.94C6.14101 10.17 5.81101 9.42 5.23101 8.87C4.25101 7.94 3.74101 6.52 4.12101 4.99C4.47101 3.58 5.62101 2.43 7.04101 2.11C7.37101 2.03 7.69101 2 8.00101 2C10.211 2 12.001 3.79 12.001 6C12.001 7.14 11.521 8.15 10.761 8.88Z" fill="white"/>
</svg>
