<svg width="24" height="24" viewBox="0 0 24 24" fill="none" xmlns="http://www.w3.org/2000/svg">
<path fill-rule="evenodd" clip-rule="evenodd" d="M12.707 12.0001L16.853 7.85413C17.049 7.65813 17.049 7.34213 16.853 7.14613C16.658 6.95113 16.342 6.95113 16.146 7.14613L12 11.2931L7.85301 7.14613C7.65801 6.95113 7.34201 6.95113 7.14601 7.14613C6.95101 7.34213 6.95101 7.65813 7.14601 7.85413L11.293 12.0001L7.14601 16.1461C6.95101 16.3421 6.95101 16.6581 7.14601 16.8541C7.24401 16.9511 7.37201 17.0001 7.50001 17.0001C7.62801 17.0001 7.75601 16.9511 7.85301 16.8541L12 12.7071L16.146 16.8541C16.244 16.9511 16.372 17.0001 16.5 17.0001C16.628 17.0001 16.756 16.9511 16.853 16.8541C17.049 16.6581 17.049 16.3421 16.853 16.1461L12.707 12.0001Z" fill="#F7F8F8" fill-opacity="0.8"/>
</svg>
