<svg width="24" height="24" viewBox="0 0 24 24" fill="none" xmlns="http://www.w3.org/2000/svg">
<path d="M14.0115 5.78978C13.8215 5.59992 13.5715 5.5 13.3015 5.5C13.2415 5.5 13.1715 5.5 13.1115 5.51998C12.7815 5.57994 12.5115 5.79977 12.3815 6.10953L10.9915 9.33705C10.8615 9.63682 10.5915 9.85665 10.2715 9.92659L8.30146 10.3163C7.94146 10.3862 7.65146 10.656 7.54146 11.0058C7.43146 11.3555 7.53146 11.7452 7.79146 12.005L9.54146 13.7537L5.65146 17.6407C5.45146 17.8405 5.45146 18.1503 5.65146 18.3501C5.75146 18.45 5.88146 18.5 6.00146 18.5C6.12146 18.5 6.26146 18.45 6.35146 18.3501L10.2415 14.4631L11.9915 16.2118C12.1815 16.4016 12.4415 16.5015 12.7015 16.5015C12.8015 16.5015 12.8915 16.4915 12.9915 16.4616C13.3415 16.3517 13.6115 16.0619 13.6815 15.7022L14.0715 13.7337C14.1315 13.4139 14.3515 13.1441 14.6615 13.0142L17.8915 11.6253C18.1915 11.4954 18.4215 11.2256 18.4815 10.8958C18.5415 10.5661 18.4415 10.2364 18.2115 9.99654L14.0115 5.78978ZM14.2715 12.0749C13.6615 12.3347 13.2315 12.8743 13.1015 13.5238L12.7115 15.4923L8.50146 11.2955L10.4715 10.9058C11.1215 10.7759 11.6615 10.3363 11.9215 9.73674L13.3115 6.50922L17.5115 10.706L14.2715 12.0749Z" fill="#BDBEC0"/>
</svg>
