<svg width="24" height="24" viewBox="0 0 24 24" fill="none" xmlns="http://www.w3.org/2000/svg">
<rect width="24" height="24" rx="4" fill="#F7F8F8" fill-opacity="0.1"/>
<path d="M18.2036 9.98655L14.0057 5.78978C13.8158 5.59992 13.5659 5.5 13.2961 5.5C13.2361 5.5 13.1661 5.5 13.1062 5.51998C12.7763 5.57994 12.5065 5.79977 12.3765 6.10953L11.1272 9.01729L11.8868 9.77671C11.8868 9.77671 11.9068 9.75673 11.9068 9.73674L13.2961 6.50922L17.494 10.706L14.2656 12.0949C14.2656 12.0949 14.2456 12.1149 14.2256 12.1149L14.9852 12.8743L17.8938 11.6253C18.1936 11.4954 18.4235 11.2256 18.4835 10.8958C18.543 10.5684 18.4398 10.2226 18.2036 9.98655ZM6.84882 6.14873C6.64892 5.94889 6.33908 5.94889 6.13918 6.14873C6.03923 6.24865 5.98925 6.37855 5.98925 6.49846C5.98925 6.61837 6.03923 6.75826 6.13918 6.84819L9.38805 10.0965L8.29859 10.3163C7.93878 10.3862 7.64892 10.656 7.53898 11.0058C7.42903 11.3555 7.52898 11.7452 7.78885 12.005L9.53797 13.7537L5.64992 17.6407C5.45003 17.8405 5.45003 18.1503 5.64992 18.3501C5.74987 18.45 5.87981 18.5 5.99975 18.5C6.11969 18.5 6.25962 18.45 6.34957 18.3501L10.2376 14.4631L11.9867 16.2118C12.1766 16.4016 12.4365 16.5015 12.6964 16.5015C12.7963 16.5015 12.8863 16.4915 12.9862 16.4616C13.3361 16.3517 13.6059 16.0619 13.6759 15.7022L13.8958 14.613L17.1447 17.8613C17.3446 18.0611 17.6544 18.0611 17.8543 17.8613C17.9542 17.7613 18.0042 17.6314 18.0042 17.5115C18.0042 17.3916 17.9542 17.2517 17.8543 17.1618L6.84882 6.14873ZM12.6964 15.4923L8.49849 11.2955L10.2376 10.9458L13.0362 13.7437L12.6864 15.4823L12.6964 15.4923Z" fill="#BDBEC0"/>
</svg>
